<?xml version="1.0" encoding="utf-8"?>
<!-- Generator: Adobe Illustrator 17.1.0, SVG Export Plug-In . SVG Version: 6.00 Build 0)  -->
<!DOCTYPE svg PUBLIC "-//W3C//DTD SVG 1.1//EN" "http://www.w3.org/Graphics/SVG/1.1/DTD/svg11.dtd">
<svg version="1.1" id="Layer_1" xmlns="http://www.w3.org/2000/svg" xmlns:xlink="http://www.w3.org/1999/xlink" x="0px" y="0px"
	 viewBox="0 0 151.3 51.9" enable-background="new 0 0 151.3 51.9" xml:space="preserve">
<g>
	<polygon fill="#FFFFFF" points="85.1,42.5 85.1,47.3 73.3,47.3 73.3,49.6 61.5,49.6 61.5,51.9 37.8,51.9 37.8,49.6 49.7,49.6 
		49.7,47.2 52,47.2 52,42.5 49.7,42.5 49.7,37.8 47.3,37.8 47.3,35.4 49.7,35.4 49.7,33 52,33 52,30.7 59.1,30.7 59.1,28.4 
		63.8,28.4 63.8,26 75.6,26 75.6,23.6 78,23.6 78,37.8 82.7,37.8 82.7,42.5 	"/>
	<polygon fill="#FFFFFF" points="63.8,14.2 63.8,18.9 59.1,18.9 59.1,21.3 54.4,21.3 54.4,23.6 49.7,23.6 49.7,26 37.8,26 
		37.8,28.4 21.3,28.4 21.3,26 35.5,26 35.5,23.6 40.2,23.6 40.2,21.3 42.6,21.3 42.6,18.9 44.9,18.9 44.9,14.2 42.6,14.2 42.6,11.8 
		37.8,11.8 37.8,9.5 35.5,9.5 35.5,7.1 28.4,7.1 28.4,9.5 26,9.5 26,11.8 23.7,11.8 23.7,14.2 21.3,14.2 21.3,18.9 18.9,18.9 
		18.9,23.6 16.6,23.6 16.6,28.4 18.9,28.4 18.9,33 21.3,33 21.3,37.8 23.7,37.8 23.7,42.5 26,42.5 26,44.9 28.4,44.9 28.4,47.2 
		37.8,47.2 37.8,49.6 16.6,49.6 16.6,47.2 11.9,47.2 11.9,44.9 7.1,44.9 7.1,37.8 4.7,37.8 4.7,33 2.4,33 2.4,28.3 0,28.3 0,23.6 
		2.4,23.6 2.4,18.9 4.8,18.9 4.8,14.2 7.1,14.2 7.1,11.8 11.9,11.8 11.9,9.5 14.2,9.5 14.2,7.1 23.7,7.1 23.7,4.7 37.8,4.7 
		37.8,7.1 49.7,7.1 49.7,9.5 59.1,9.5 59.1,11.8 61.5,11.8 61.5,14.2 	"/>
	<polyline fill="#FFFFFF" points="139.5,2.4 139.5,7.1 134.8,7.1 134.8,9.5 137.1,9.5 137.1,14.2 139.5,14.2 139.5,18.9 141.9,18.9 
		141.9,33.1 139.5,33.1 139.5,37.8 137.1,37.8 137.1,42.5 134.8,42.5 134.8,44.9 130,44.9 130,42.5 127.7,42.5 127.7,40.2 130,40.2 
		130,7.1 132.4,7.1 132.4,4.7 130,4.7 130,4.7 127.7,4.7 127.7,2.4 118.2,2.4 118.2,2.4 115.8,2.4 115.8,2.4 108.8,2.4 108.8,4.7 
		113.5,4.7 113.5,7.1 115.8,7.1 115.8,7.1 118.2,7.1 118.2,9.5 120.6,9.5 120.6,40.2 118.2,40.2 118.2,42.5 115.8,42.5 115.8,42.5 
		113.5,42.5 113.5,44.9 111.1,44.9 111.1,47.3 101.7,47.3 101.7,44.9 99.3,44.9 99.3,42.5 96.9,42.5 96.9,40.2 94.6,40.2 94.6,35.4 
		92.2,35.4 92.2,26 89.8,26 89.8,11.8 92.2,11.8 92.2,7.1 94.5,7.1 94.5,2.4 96.9,2.4 96.9,0 85.1,0 85.1,2.4 75.7,2.4 75.7,4.7 
		73.3,4.7 73.3,11.8 70.9,11.8 70.9,16.6 68.6,16.6 68.6,21.3 70.9,21.3 70.9,23.6 73.3,23.6 73.3,21.3 80.4,21.3 80.4,35.4 
		85.1,35.4 85.1,40.2 87.5,40.2 87.5,47.3 94.6,47.3 94.6,49.6 113.5,49.6 113.5,47.3 115.8,47.3 115.8,49.6 125.3,49.6 125.3,47.3 
		137.1,47.3 137.1,49.6 144.2,49.6 144.2,47.3 146.6,47.3 146.6,47.3 146.6,44.9 148.9,44.9 148.9,42.5 151.3,42.5 151.3,9.4 
		148.9,9.4 148.9,7.1 146.6,7.1 146.6,4.7 144.2,4.7 144.2,2.4 	"/>
</g>
</svg>
